<svg width="297" height="297" viewBox="0 0 297 297" fill="none" xmlns="http://www.w3.org/2000/svg">
<g clip-path="url(#clip0_542_101)">
<path d="M287.034 60.8729L266.215 60.8719V39.3209C266.215 34.3869 262.605 30.1949 257.725 29.4649C256.873 29.3369 236.591 26.3909 212.168 30.8349C184.941 35.7889 163.227 48.0059 148.5 66.4749C133.772 48.0059 112.058 35.7889 84.832 30.8349C60.408 26.3919 40.126 29.3369 39.275 29.4649C34.395 30.1959 30.785 34.3879 30.785 39.3209V60.8719H9.966C4.463 60.8719 0 65.3349 0 70.8389V258.644C0 261.871 1.562 264.898 4.193 266.768C6.824 268.638 10.197 269.118 13.244 268.056C13.992 267.797 88.675 242.309 144.364 267.711C146.992 268.91 150.009 268.91 152.637 267.711C208.17 242.381 283.013 267.799 283.757 268.056C284.825 268.428 285.931 268.611 287.033 268.611C289.076 268.611 291.098 267.983 292.808 266.769C295.439 264.899 297.001 261.872 297.001 258.645V70.8399C297 65.3359 292.538 60.8729 287.034 60.8729ZM19.933 245.309V80.8049H30.785V213.531C30.785 216.427 32.052 219.177 34.243 221.07C36.434 222.963 39.348 223.812 42.212 223.389C42.762 223.309 86.058 217.365 117.69 239.068C78.725 232.405 39.727 240.112 19.933 245.309ZM138.534 230.08C124.602 217.492 106.455 208.98 84.832 205.046C74.426 203.152 64.772 202.6 57.052 202.6C54.76 202.6 52.638 202.649 50.719 202.726V48.4729H50.718C69.873 47.6089 116.47 49.6569 138.534 87.0599V230.08ZM158.466 87.0609C180.451 49.8179 227.121 47.6769 246.282 48.4979V202.726C237.899 202.388 225.662 202.59 212.168 205.046C190.545 208.98 172.398 217.491 158.466 230.08V87.0609ZM179.277 239.074C210.913 217.358 254.232 223.308 254.772 223.388C257.643 223.819 260.555 222.975 262.753 221.083C264.951 219.189 266.215 216.433 266.215 213.531V80.8059H277.067V245.309C257.267 240.11 218.253 232.4 179.277 239.074Z" fill="white"/>
</g>
<defs>
<clipPath id="clip0_542_101">
<rect width="297.001" height="297.001" fill="white"/>
</clipPath>
</defs>
</svg>
