<svg width="321" height="321" viewBox="0 0 321 321" fill="none" xmlns="http://www.w3.org/2000/svg">
<g clip-path="url(#clip0_542_160)">
<path d="M132.914 141.064C132.914 146.332 137.05 150.469 142.318 150.469C147.586 150.469 151.723 146.332 151.723 141.064C151.723 135.797 147.586 131.66 142.318 131.66C137.05 131.66 132.914 135.797 132.914 141.064Z" fill="white"/>
<path d="M198.744 244.512C256.299 244.512 304.824 204.262 317.615 150.469H281.691C277.929 161.379 267.396 169.277 255.17 169.277C239.557 169.277 226.957 156.677 226.957 141.064C226.957 136.739 227.897 132.6 229.778 129.027L210.781 110.03C207.208 111.911 203.069 112.851 198.744 112.851C194.419 112.851 190.28 111.911 186.707 110.03L167.71 129.027C169.591 132.6 170.531 136.739 170.531 141.064C170.531 156.677 157.931 169.277 142.318 169.277C126.706 169.277 114.105 156.677 114.105 141.064C114.105 136.739 115.046 132.6 116.927 129.027L80.25 92.3506C77.8059 101.943 76.4883 111.911 76.4883 122.256C76.4883 189.592 131.408 244.512 198.744 244.512Z" fill="white"/>
<path d="M189.34 84.6387C189.34 89.9065 193.476 94.043 198.744 94.043C204.012 94.043 208.148 89.9065 208.148 84.6387C208.148 79.3708 204.012 75.2344 198.744 75.2344C193.476 75.2344 189.34 79.3708 189.34 84.6387Z" fill="white"/>
<path d="M245.766 141.064C245.766 146.332 249.902 150.469 255.17 150.469C260.438 150.469 264.574 146.332 264.574 141.064C264.574 135.797 260.438 131.66 255.17 131.66C249.902 131.66 245.766 135.797 245.766 141.064Z" fill="white"/>
<path d="M198.744 0C149.09 0 106.207 29.9052 87.2101 72.6017L130.281 115.673C133.854 113.792 137.993 112.852 142.318 112.852C146.643 112.852 150.782 113.792 154.355 115.673L173.353 96.6757C171.472 93.1025 170.531 88.9637 170.531 84.6387C170.531 69.0261 183.132 56.4258 198.744 56.4258C214.357 56.4258 226.957 69.0261 226.957 84.6387C226.957 88.9637 226.017 93.1025 224.136 96.6757L243.133 115.673C246.706 113.792 250.845 112.852 255.17 112.852C267.395 112.852 277.929 120.75 281.691 131.66H320.623C320.811 128.65 321 125.452 321 122.256C321 54.9196 266.08 0 198.744 0Z" fill="white"/>
<path d="M76.4883 47.0215C76.4883 31.4089 63.888 18.8086 48.2754 18.8086C36.0498 18.8086 25.5165 26.7067 21.7548 37.6172H0V56.4258H21.7548C25.5165 67.3362 36.0498 75.2344 48.2754 75.2344C52.6004 75.2344 56.7393 74.2939 60.3124 72.4131L80.25 92.3507C81.9423 85.5791 84.2003 78.9961 87.2102 72.6017L73.667 59.0585C75.5479 55.4854 76.4883 51.3465 76.4883 47.0215Z" fill="white"/>
<path d="M48.1456 312.752L121.026 239.868C105.206 229.377 91.6233 215.794 81.1317 199.974L8.2508 272.857C-2.75027 283.86 -2.75027 301.751 8.2508 312.752C19.2445 323.745 37.1445 323.755 48.1456 312.752Z" fill="white"/>
</g>
<defs>
<clipPath id="clip0_542_160">
<rect width="321" height="321" fill="white"/>
</clipPath>
</defs>
</svg>
