<svg width="8" height="11" viewBox="0 0 8 11" fill="none" xmlns="http://www.w3.org/2000/svg">
<g clip-path="url(#clip0_537_40)">
<path d="M7.83501 5.097L0.406005 0.0370047C0.376577 0.0186925 0.343434 0.00717679 0.308991 0.00329615C0.274548 -0.000584501 0.239674 0.00326745 0.206909 0.0145724C0.174143 0.0258773 0.144313 0.0443498 0.119591 0.0686438C0.0948699 0.0929379 0.0758798 0.122442 0.064005 0.155005C0.022994 0.234967 0.00102338 0.323326 -0.000190908 0.413183C-0.0014052 0.503041 0.0181697 0.591963 0.057005 0.673004L2.50001 5.479L0.058005 10.287C0.0191641 10.368 -0.000498303 10.4569 0.000542206 10.5467C0.00158272 10.6365 0.0232982 10.7249 0.064005 10.805C0.0832853 10.8489 0.114131 10.8866 0.153238 10.9143C0.192345 10.9419 0.23824 10.9584 0.286005 10.962C0.328715 10.9614 0.370228 10.9478 0.405005 10.923L7.83301 5.86301C7.88538 5.8139 7.92713 5.75458 7.95567 5.6887C7.9842 5.62283 7.99893 5.5518 7.99893 5.48C7.99893 5.40821 7.9842 5.33718 7.95567 5.27131C7.92713 5.20543 7.88538 5.14611 7.83301 5.097H7.83501Z" fill="white"/>
</g>
<defs>
<clipPath id="clip0_537_40">
<rect width="8" height="10.962" fill="white"/>
</clipPath>
</defs>
</svg>
