<svg width="129" height="129" viewBox="0 0 129 129" fill="none" xmlns="http://www.w3.org/2000/svg">
<path d="M61.5 107.1C61.9 107.5 62.4 107.8 62.9 108C62.9 108 62.9 108 63 108C63.5 108.2 64 108.3 64.6 108.3C65.2 108.3 65.7 108.2 66.2 108C66.2 108 66.2 108 66.3 108C66.8 107.8 67.3 107.5 67.7 107.1L124.6 50.2C126.3 48.5 126.3 45.8 124.6 44.1C122.9 42.4 120.2 42.4 118.5 44.1L68.8 93.6V10.8C68.8 8.4 66.9 6.5 64.5 6.5C62.1 6.5 60.2 8.4 60.2 10.8V93.7L10.7 44.1C9.00001 42.4 6.30001 42.4 4.60001 44.1C2.90001 45.8 2.90001 48.5 4.60001 50.2L61.5 107.1Z" fill="white"/>
<path d="M7.59999 122.6H121.4C123.8 122.6 125.7 120.7 125.7 118.3C125.7 115.9 123.8 114 121.4 114H7.59999C5.19999 114 3.29999 115.9 3.29999 118.3C3.29999 120.6 5.19999 122.6 7.59999 122.6V122.6Z" fill="white"/>
</svg>
