<svg width="330" height="330" viewBox="0 0 330 330" fill="none" xmlns="http://www.w3.org/2000/svg">
<path d="M281.858 37.3558H272.209V274.414C272.209 290.163 259.389 302.982 243.641 302.982H145.874H68.1298V311.77C68.1298 321.833 76.2971 330 86.3597 330H184.092H281.824C291.886 330 300.053 321.833 300.053 311.77V55.5858C300.054 45.5231 291.921 37.3558 281.858 37.3558Z" fill="white"/>
<path d="M145.874 292.644H243.606C253.669 292.644 261.836 284.477 261.836 274.415V37.3559V18.23C261.836 8.16729 253.669 0 243.606 0H145.874H113.377V6.0307C113.446 6.651 113.481 7.30577 113.481 7.96053V47.6942V57.8947C113.481 72.0583 101.971 83.5683 87.8071 83.5683H77.6066H37.8729C37.3559 83.5683 36.8046 83.5338 36.2876 83.4994H29.9468V274.415C29.9468 284.477 38.1141 292.644 48.1767 292.644H68.1642H145.874ZM149.562 230.683H85.8428C81.0872 230.683 77.2275 226.823 77.2275 222.068C77.2275 217.312 81.0872 213.452 85.8428 213.452H149.596C154.352 213.452 158.211 217.312 158.211 222.068C158.211 226.823 154.317 230.683 149.562 230.683ZM213.315 186.711H85.8428C81.0872 186.711 77.2275 182.851 77.2275 178.096C77.2275 173.34 81.0872 169.48 85.8428 169.48H213.315C218.07 169.48 221.93 173.34 221.93 178.096C221.93 182.851 218.07 186.711 213.315 186.711ZM85.8428 122.785H213.315C218.07 122.785 221.93 126.645 221.93 131.4C221.93 136.156 218.07 140.016 213.315 140.016H85.8428C81.0872 140.016 77.2275 136.156 77.2275 131.4C77.2275 126.645 81.0872 122.785 85.8428 122.785Z" fill="white"/>
<path d="M37.8728 73.2299H87.8071C87.8416 73.2299 87.9105 73.2299 87.9449 73.2299C96.2845 73.161 103.039 66.4066 103.108 58.067C103.108 58.0325 103.108 57.9636 103.108 57.9291V7.96047C103.108 3.34268 99.3171 0.275635 95.3889 0.275635C93.4935 0.275635 91.5982 0.964858 90.013 2.55007L32.428 60.1347C27.6034 64.9592 31.0151 73.2299 37.8728 73.2299Z" fill="white"/>
</svg>
